# AST/ASF file generated using VICON BodyLanguage
# -----------------------------------------------
:version 1.10
:name VICON
:units
  mass 1.0
  length 0.45
  angle deg
:documentation
   .ast/.asf automatically generated from VICON data using
   VICON BodyBuilder and BodyLanguage model FoxedUp or BRILLIANT.MOD
:root
   order TX TY TZ RX RY RZ
   axis XYZ
   position 0 0 0  
   orientation 0 0 0 
:bonedata
  begin
     id 1 
     name lhipjoint
     direction 0.523584 -0.783993 0.333487 
     length 2.44404 
     axis 0 0 0  XYZ
  end
  begin
     id 2 
     name lfemur
     direction 0.34202 -0.939693 0  
     length 7.29523  
     axis 0 0 20  XYZ
    dof rx ry rz
    limits (-160.0 20.0)
           (-70.0 70.0)
           (-60.0 70.0)
  end
  begin
     id 3 
     name ltibia
     direction 0.34215 -0.939645 0   
     length 7.81194   
     axis 0 0 20   XYZ
    dof rx
    limits (-10.0 170.0)
  end
  begin
     id 4 
     name lfoot
     direction 0.0941847 -0.25877 0.961336   
     length 2.41437   
     axis -90 7.62852e-016 20   XYZ
    dof rx rz
    limits (-45.0 90.0)
           (-70.0 20.0)
  end
  begin
     id 5 
     name ltoes
     direction 1.53526e-011 -4.21768e-011 1   
     length 1.2048   
     axis -90 7.62852e-016 20   XYZ
    dof rx
    limits (-90.0 20.0)
  end
  begin
     id 6 
     name rhipjoint
     direction -0.46599 -0.814191 0.346332   
     length 2.35339  
     axis 0 0 0  XYZ 
  end
  begin
     id 7 
     name rfemur
     direction -0.34202 -0.939693 0   
     length 7.34966   
     axis 0 0 -20   XYZ
    dof rx ry rz
    limits (-160.0 20.0)
           (-70.0 70.0)
           (-70.0 60.0)
  end
  begin
     id 8 
     name rtibia
     direction -0.34202 -0.939693 0   
     length 7.89934   
     axis 0 0 -20   XYZ
    dof rx
    limits (-10.0 170.0)
 end
 begin
     id 9 
     name rfoot
     direction -0.0975468 -0.268008 0.958466   
     length 2.27725  
     axis -90 -7.62852e-016 -20   XYZ
    dof rx rz
    limits (-45.0 90.0)
           (-20.0 70.0)
  end
  begin
     id 10 
     name rtoes
     direction -1.53563e-011 -4.22022e-011 1   
     length 1.13683   
     axis -90 -7.62852e-016 -20   XYZ
    dof rx
    limits (-90.0 20.0)
  end
  begin
     id 11 
     name lowerback
     direction -0.00456414 0.999242 -0.0386661   
     length 2.16968   
     axis 0 0 0   XYZ
    dof rx ry rz
    limits (-20.0 45.0)
           (-30.0 30.0)
           (-30.0 30.0)
  end
  begin
     id 12 
     name upperback
     direction 0.0297078 0.998988 0.0337799   
     length 2.15674   
     axis 0 0 0   XYZ
    dof rx ry rz
    limits (-20.0 45.0)
           (-30.0 30.0)
           (-30.0 30.0)
  end
  begin
     id 13 
     name thorax
     direction 0.0309305 0.998202 0.0513506   
     length 2.16319   
     axis 0 0 0   XYZ
    dof rx ry rz
    limits (-20.0 45.0)
           (-30.0 30.0)
           (-30.0 30.0)
  end
  begin
     id 14 
     name lowerneck
     direction -0.103039 0.983474 0.148872   
     length 1.64318   
     axis 0 0 0   XYZ
    dof rx ry rz
    limits (-20.0 45.0)
           (-30.0 30.0)
           (-30.0 30.0)
  end
  begin
     id 15 
     name upperneck
     direction 0.128124 0.971079 -0.201469   
     length 1.68242   
     axis 0 0 0   XYZ
    dof rx ry rz
    limits (-20.0 45.0)
           (-30.0 30.0)
           (-30.0 30.0)
  end
  begin
     id 16
     name head
     direction 0.0496365 0.994919 -0.0875941  
     length 1.70108  
     axis 0 0 0   XYZ
    dof rx ry rz
    limits (-20.0 45.0)
           (-30.0 30.0)
           (-30.0 30.0)
  end
  begin
     id 17 
     name lclavicle
     direction 0.887148 0.430222 -0.166967  
     length 3.25763  
     axis 0 0 0   XYZ
    dof ry rz
    limits (-20.0 10.0)
           (0.0 20.0)
  end
  begin
     id 18 
     name lhumerus
     direction 1 -4.48962e-011 1.92156e-027   
     length 5.10755   
     axis 180 -30 -90   XYZ
    dof rx ry rz
    limits (-60.0 90.0)
           (-90.0 90.0)
           (-90.0 90.0)
  end
  begin
     id 19
     name lradius
     direction 1 -4.48958e-011 7.10963e-027   
     length 3.36253   
     axis 180 -30 -90   XYZ
    dof rx
    limits (-10.0 170.0)
  end
  begin
     id 20
     name lwrist
     direction 1 -4.48946e-011 1.82396e-026   
     length 1.68127   
     axis -1.15222e-014 90 90   XYZ
    dof ry
    limits (-180.0 0.0)
 end
  begin
     id 21 
     name lhand
     direction 1 -4.48919e-011 3.64759e-026   
     length 0.619088   
     axis -2.32787e-014 90 90   XYZ
    dof rx rz
    limits (-90.0 90.0)
           (-45.0 45.0)
  end
  begin
     id 22 
     name lfingers
     direction 1 -4.49012e-011 7.29744e-026   
     length 0.499125   
     axis -4.6558e-014 90 90   XYZ
    dof rx
    limits (0.0 90.0)
  end
  begin
     id 23
     name lthumb
     direction 0.707107 -6.35028e-011 0.707107   
     length 0.716646   
     axis -90 45 3.78391e-014   XYZ
    dof rx rz
    limits (-45.0 45.0)
           (-45.0 45.0)
  end
  begin
     id 24 
     name rclavicle
     direction -0.82886 0.533198 -0.169384   
     length 3.20647  
     axis 0 0 0   XYZ 
    dof ry rz
    limits (-10.0 20.0)
           (-20.0 0.0)
  end
  begin
     id 25 
     name rhumerus
     direction -1 -4.48973e-011 3.06863e-027  
     length 5.27387   
     axis 180 30 90   XYZ
    dof rx ry rz
    limits (-90.0 60.0)
           (-90.0 90.0)
           (-90.0 90.0)
  end
  begin
     id 26 
     name rradius
     direction -1 -4.48988e-011 9.4797e-027   
     length 3.40144   
     axis 180 30 90   XYZ
    dof rx
    limits (-10.0 170.0)
  end
  begin
     id 27 
     name rwrist
     direction -1 -4.48897e-011 1.82366e-026   
     length 1.70072   
     axis -1.15222e-014 -90 -90   XYZ
    dof ry
    limits (-180.0 0.0)
  end
  begin
     id 28
     name rhand
     direction -1 -4.48965e-011 3.64815e-026   
     length 0.742821   
     axis -2.32787e-014 -90 -90   XYZ
    dof rx rz
    limits (-90.0 90.0)
           (-45.0 45.0)
  end
  begin
     id 29
     name rfingers
     direction -1 -4.49016e-011 7.29754e-026   
     length 0.598881   
     axis -4.6558e-014 -90 -90   XYZ
    dof rx
    limits (0.0 90.0)
  end
  begin
     id 30
     name rthumb
     direction -0.707107 -6.3488e-011 0.707107   
     length 0.859877   
     axis -90 -45 -3.78391e-014   XYZ
    dof rx rz
    limits (-45.0 45.0)
           (-45.0 45.0)
  end
:hierarchy
  begin
    root lhipjoint rhipjoint lowerback
    lhipjoint lfemur
    lfemur ltibia
    ltibia lfoot
    lfoot ltoes
    rhipjoint rfemur
    rfemur rtibia
    rtibia rfoot
    rfoot rtoes
    lowerback upperback
    upperback thorax
    thorax lowerneck lclavicle rclavicle
    lowerneck upperneck
    upperneck head
    lclavicle lhumerus
    lhumerus lradius
    lradius lwrist
    lwrist lhand lthumb
    lhand lfingers
    rclavicle rhumerus
    rhumerus rradius
    rradius rwrist
    rwrist rhand rthumb
    rhand rfingers
  end

#!OML:ASF F:\Work\Patient Classification 1\justin\Session 1\justin.ASF
:FULLY-SPECIFIED
:DEGREES
2347
root -0.602612 17.8289 13.2035 382.237 -110.842 -384.695
lowerback 24.6415 1.25042 1.70066
upperback 5.48234 1.95202 6.97584
thorax -7.83716 0.647627 6.20896
lowerneck -23.6057 -3.58708 -14.1958
upperneck 16.748 -1.46588 6.17011
head 9.31205 -0.917312 4.24561
rclavicle -1.74931e-014 -4.77083e-014
rhumerus -25.2648 17.7911 -78.9221
rradius 34.8909
rwrist 6.77741
rhand -24.1166 15.302
rfingers 7.12502
rthumb 2.36479 -14.6646
lclavicle -1.74931e-014 -4.77083e-014
lhumerus -39.0131 -7.85612 101.621
lradius 57.5275
lwrist -5.58566
lhand -23.8737 8.48139
lfingers 7.12502
lthumb 2.5993 38.4453
rfemur -18.4393 -8.3842 7.51162
rtibia 38.2204
rfoot -16.9778 -7.82747
rtoes 15.1015
lfemur -27.3702 8.62129 -19.629
ltibia 33.1157
lfoot -2.22027 -8.19386
ltoes -28.3748
2348
root -0.705032 17.848 13.1929 379.959 -110.777 -382.205
lowerback 24.2703 1.10178 2.70332
upperback 5.30131 2.00864 7.01139
thorax -7.81631 0.658896 5.64349
lowerneck -23.5578 -3.36919 -13.8866
upperneck 16.8771 -1.20501 5.81297
head 9.31618 -0.822606 4.10784
rclavicle 4.77083e-014 -6.04305e-014
rhumerus -25.4665 16.47 -79.2033
rradius 33.9615
rwrist 7.33853
rhand -23.8714 15.5117
rfingers 7.12502
rthumb 2.60156 -14.4522
lclavicle 4.77083e-014 -6.04305e-014
lhumerus -39.4282 -7.71349 101.449
lradius 57.4055
lwrist -5.53095
lhand -23.3908 8.67778
lfingers 7.12502
lthumb 3.06565 38.6355
rfemur -17.806 -8.8053 8.33545
rtibia 37.4313
rfoot -16.8371 -7.27103
rtoes 15.1836
lfemur -26.5347 7.1008 -18.6519
ltibia 32.019
lfoot -2.85609 -8.29658
ltoes -27.6784
2349
root -0.811828 17.8829 13.1841 377.748 -111.179 -379.737
lowerback 24.1453 1.25771 4.10763
upperback 4.85153 2.60498 6.64182
thorax -8.21396 0.930184 4.23535
lowerneck -22.9668 -4.00815 -14.7432
upperneck 16.7482 -2.1558 7.05051
head 9.29486 -1.18103 4.54945
rclavicle -1.27222e-014 3.18055e-014
rhumerus -26.3739 14.2955 -79.6147
rradius 33.2632
rwrist 7.31233
rhand -24.3664 15.3928
rfingers 7.12502
rthumb 2.12353 -14.5764
lclavicle -1.27222e-014 3.18055e-014
lhumerus -40.4062 -8.70592 101.27
lradius 57.2607
lwrist -5.45161
lhand -22.9643 9.13659
lfingers 7.12502
lthumb 3.47758 39.088
rfemur -17.319 -7.92303 9.05037
rtibia 36.7264
rfoot -16.9553 -7.51288
rtoes 14.7869
lfemur -25.6315 5.7543 -17.7969
ltibia 30.8725
lfoot -3.27386 -8.19199
ltoes -25.0732
2350
root -0.910494 17.9072 13.1587 375.369 -112.054 -377.041
lowerback 23.5481 1.59054 4.12429
upperback 4.85347 3.01036 6.90319
thorax -7.93488 1.1256 4.3932
lowerneck -23.0597 -3.79508 -14.6146
upperneck 16.843 -1.79698 6.60357
head 9.29698 -1.05962 4.4214
rclavicle -9.54166e-015 -1.11319e-013
rhumerus -26.3692 13.8589 -79.4754
rradius 32.6319
rwrist 6.98624
rhand -24.3351 15.3189
rfingers 7.12502
rthumb 2.1537 -14.65
lclavicle -9.54166e-015 -1.11319e-013
lhumerus -40.5873 -8.25303 101.194
lradius 57.0652
lwrist -5.45364
lhand -22.7513 9.33114
lfingers 7.12502
lthumb 3.68327 39.2791
rfemur -17.017 -6.71632 9.86768
rtibia 36.0364
rfoot -16.9788 -7.68331
rtoes 14.9906
lfemur -24.876 5.04233 -16.9377
ltibia 29.9671
lfoot -3.90601 -8.21403
ltoes -24.2129
2351
root -1.00359 17.9159 13.1745 375.374 -113.095 -376.662
lowerback 23.0322 1.84431 3.94769
upperback 4.63608 3.30134 6.70547
thorax -7.92095 1.28564 4.18737
lowerneck -23.1996 -3.58084 -14.4201
upperneck 17.2292 -1.50477 6.3819
head 9.41974 -0.948373 4.36176
rclavicle 1.59028e-014 1.27222e-014
rhumerus -26.5854 13.1284 -79.369
rradius 32.0922
rwrist 6.92636
rhand -23.8979 15.356
rfingers 7.12502
rthumb 2.57598 -14.6082
lclavicle 1.59028e-014 1.27222e-014
lhumerus -40.8837 -7.848 100.978
lradius 56.7349
lwrist -5.47474
lhand -22.4218 8.91531
lfingers 7.12502
lthumb 4.00142 38.8575
rfemur -17.1506 -6.22857 9.58371
rtibia 35.425
rfoot -16.6276 -7.37758
rtoes 15.0696
lfemur -24.5011 3.78935 -17.166
ltibia 29.0875
lfoot -4.75958 -7.65502
ltoes -24.8244
2352
root -1.10849 17.9298 13.1523 374.796 -113.523 -376.027
lowerback 22.6198 1.9675 3.84275
upperback 4.527 3.433 6.71569
thorax -7.8398 1.36009 4.22263
lowerneck -23.2522 -3.326 -14.1265
upperneck 17.4658 -1.16155 5.98029
head 9.46943 -0.824593 4.22468
rclavicle -7.95139e-015 4.45278e-014
rhumerus -26.7598 12.7786 -79.1585
rradius 31.5752
rwrist 6.60961
rhand -23.7614 15.1179
rfingers 7.12502
rthumb 2.70776 -14.8446
lclavicle -7.95139e-015 4.45278e-014
lhumerus -41.1001 -7.39997 100.821
lradius 56.3285
lwrist -5.56976
lhand -22.0878 9.15026
lfingers 7.12502
lthumb 4.32403 39.0861
rfemur -16.6392 -5.97864 9.65773
rtibia 34.9568
rfoot -16.6231 -7.31021
rtoes 13.534
lfemur -23.7268 2.85258 -17.1504
ltibia 28.2458
lfoot -5.45699 -7.77567
ltoes -25.2902
2353
root -1.21195 17.9378 13.1212 372.757 -113.76 -373.85
lowerback 22.1477 1.96876 4.06437
upperback 4.45844 3.46857 7.00238
thorax -7.67385 1.37296 4.40964
lowerneck -23.0557 -2.75535 -13.2197
upperneck 17.4978 -0.487296 4.94169
head 9.36861 -0.57616 3.80189
rclavicle 7.95139e-015 -8.5875e-014
rhumerus -26.9102 13.0344 -79.2447
rradius 31.0382
rwrist 5.92181
rhand -23.4191 14.7893
rfingers 7.12502
rthumb 3.0384 -15.1688
lclavicle 7.95139e-015 -8.5875e-014
lhumerus -41.314 -6.59357 100.579
lradius 56.0235
lwrist -5.65865
lhand -21.8517 10.3681
lfingers 7.12502
lthumb 4.55192 40.2992
rfemur -16.1175 -5.82789 10.5318
rtibia 34.6154
rfoot -16.5767 -7.31241
rtoes 10.9637
lfemur -22.9776 2.33504 -16.4739
ltibia 27.4447
lfoot -5.87056 -8.30193
ltoes -25.8495
2354
root -1.31041 17.9368 13.0952 372.164 -114.385 -373.401
lowerback 21.8885 2.0277 3.50234
upperback 4.40696 3.41543 6.97304
thorax -7.62512 1.3677 4.71582
lowerneck -22.799 -2.19646 -12.4001
upperneck 17.4463 0.116366 4.26633
head 9.2467 -0.319008 3.5127
rclavicle 1.03368e-013 1.65389e-013
rhumerus -27.1482 13.4422 -79.6884
rradius 30.5406
rwrist 5.29842
rhand -22.813 14.5746
rfingers 7.12502
rthumb 3.62367 -15.3743
lclavicle 1.03368e-013 1.65389e-013
lhumerus -41.5535 -5.62058 100.039
lradius 55.7113
lwrist -5.70599
lhand -21.4891 10.9347
lfingers 7.12502
lthumb 4.90212 40.858
rfemur -15.5581 -5.52182 10.5229
rtibia 34.3277
rfoot -16.5629 -7.16529
rtoes 10.104
lfemur -22.1166 2.24105 -16.738
ltibia 26.7311
lfoot -6.26037 -9.00358
ltoes -26.8099
2355
root -1.41357 17.9344 13.0647 371.698 -115.096 -373.15
lowerback 21.645 2.18332 2.9247
upperback 4.38299 3.48418 6.83515
thorax -7.55513 1.42237 4.87516
lowerneck -22.7509 -1.89829 -11.9839
upperneck 17.5077 0.407475 4.15106
head 9.23265 -0.170088 3.44706
rclavicle -6.52014e-014 9.54166e-015
rhumerus -27.0874 12.1639 -79.6674
rradius 29.7882
rwrist 6.01839
rhand -21.8551 14.7849
rfingers 7.12502
rthumb 4.54866 -15.1463
lclavicle -6.52014e-014 9.54166e-015
lhumerus -41.8558 -5.09651 99.4437
lradius 55.4227
lwrist -5.50367
lhand -20.8797 10.2302
lfingers 7.12502
lthumb 5.49054 40.1391
rfemur -14.9296 -5.24423 10.3893
rtibia 34.0588
rfoot -16.662 -6.81219
rtoes 10.2686
lfemur -21.1743 2.31946 -17.1128
ltibia 26.1118
lfoot -6.54702 -9.73583
ltoes -27.1509
2356
root -1.51841 17.9287 13.042 370.598 -115.761 -372.16
lowerback 21.3755 2.37414 2.54109
upperback 4.33932 3.65118 6.97492
thorax -7.50776 1.51575 5.20754
lowerneck -22.7496 -1.5983 -11.6516
upperneck 17.7594 0.785429 3.79661
head 9.29092 -0.0233423 3.32568
rclavicle -2.54444e-014 2.22639e-014
rhumerus -26.7751 9.25883 -78.8851
rradius 28.7128
rwrist 7.86633
rhand -21.1559 15.5151
rfingers 7.12502
rthumb 5.22386 -14.4005
lclavicle -2.54444e-014 2.22639e-014
lhumerus -42.1745 -4.49988 99.1687
lradius 55.0906
lwrist -5.33727
lhand -20.2684 9.63138
lfingers 7.12502
lthumb 6.08072 39.5241
rfemur -14.3977 -5.48827 10.5698
rtibia 33.8383
rfoot -16.6308 -5.93131
rtoes 9.77309
lfemur -20.2527 2.4614 -17.084
ltibia 25.519
lfoot -6.58545 -10.4309
ltoes -26.6952
